<svg width="40" height="40" viewBox="0 0 40 40" fill="none" xmlns="http://www.w3.org/2000/svg">
<path fill-rule="evenodd" clip-rule="evenodd" d="M19.9998 6.6665C16.3165 6.6665 13.3332 9.64984 13.3332 13.3332C13.3332 17.0165 16.3165 19.9998 19.9998 19.9998C23.6832 19.9998 26.6665 17.0165 26.6665 13.3332C26.6665 9.64984 23.6832 6.6665 19.9998 6.6665ZM23.3332 13.3332C23.3332 11.4998 21.8332 9.99984 19.9998 9.99984C18.1665 9.99984 16.6665 11.4998 16.6665 13.3332C16.6665 15.1665 18.1665 16.6665 19.9998 16.6665C21.8332 16.6665 23.3332 15.1665 23.3332 13.3332ZM29.9998 29.9998C29.6665 28.8165 24.4998 26.6665 19.9998 26.6665C15.5165 26.6665 10.3832 28.7998 9.99984 29.9998H29.9998ZM6.6665 29.9998C6.6665 25.5665 15.5498 23.3332 19.9998 23.3332C24.4498 23.3332 33.3332 25.5665 33.3332 29.9998V33.3332H6.6665V29.9998Z" fill="#0482BE"/>
</svg>
