<svg width="31" height="31" viewBox="0 0 31 31" fill="none" xmlns="http://www.w3.org/2000/svg">
<path fill-rule="evenodd" clip-rule="evenodd" d="M15.5001 0.916626C7.45008 0.916626 0.916748 7.44996 0.916748 15.5C0.916748 23.55 7.45008 30.0833 15.5001 30.0833C23.5501 30.0833 30.0834 23.55 30.0834 15.5C30.0834 7.44996 23.5501 0.916626 15.5001 0.916626ZM3.83341 15.4999C3.83341 14.6104 3.95008 13.7354 4.13966 12.9041L11.1105 19.8749V21.3333C11.1105 22.9374 12.423 24.2499 14.0272 24.2499V27.0645C8.29591 26.3354 3.83341 21.4354 3.83341 15.4999ZM21.3188 21.3333C22.6313 21.3333 23.7105 22.1937 24.0897 23.3749C25.9855 21.3041 27.1667 18.5333 27.1667 15.4999C27.1667 10.6145 24.1334 6.41453 19.8605 4.69369V5.29161C19.8605 6.89578 18.548 8.20828 16.9438 8.20828H14.0272V11.1249C14.0272 11.927 13.3709 12.5833 12.5688 12.5833H9.65216V15.4999H18.4022C19.2042 15.4999 19.8605 16.1562 19.8605 16.9583V21.3333H21.3188Z" fill="#0482BE"/>
</svg>
