<?xml version="1.0" encoding="UTF-8"?>
<svg width="924px" height="619px" viewBox="0 0 924 619" version="1.1" xmlns="http://www.w3.org/2000/svg" xmlns:xlink="http://www.w3.org/1999/xlink">
    <!-- Generator: Sketch 57.1 (83088) - https://sketch.com -->
    <title>Path</title>
    <desc>Created with Sketch.</desc>
    <g id="Page-1" stroke="none" stroke-width="1" fill="none" fill-rule="evenodd" opacity="0.1">
        <g id="Hvor-mye-vet-du" transform="translate(-258.000000, -265.000000)" fill="#298EE8" fill-rule="nonzero">
            <path d="M794.853911,367.056925 C735.617907,364.998324 679.199254,345.857141 625.325691,324.915329 C571.452129,303.973517 518.088942,280.771723 460.271485,269.674994 C423.084366,262.537783 380.55754,261.527965 350.593968,281.48483 C321.76005,300.68929 312.443182,333.840245 307.434041,364.600101 C303.665343,387.742751 301.44965,412.099607 311.775892,433.765206 C318.945036,448.806855 331.674652,461.450621 340.477305,475.857897 C371.107662,525.990491 349.457848,587.809555 316.263687,636.759598 C300.692945,659.721121 282.632308,681.626413 270.616996,706.069473 C258.601684,730.512534 253.043347,758.520648 263.55565,783.454728 C273.975265,808.168953 298.806274,826.732589 325.704074,839.78908 C380.334481,866.307293 444.710695,873.897095 507.486011,878.195649 C646.446438,887.710982 786.149018,883.591322 925.478382,879.465296 C977.040915,877.938354 1028.83067,876.390973 1079.55548,868.410333 C1107.72385,863.978548 1136.80584,856.944374 1157.25571,839.96353 C1183.21667,818.406462 1189.65153,781.903902 1172.25575,754.873898 C1143.07627,709.534076 1062.39832,698.272408 1042.00352,649.61505 C1030.7773,622.831834 1042.30602,592.998403 1058.6204,568.158944 C1093.61846,514.872681 1152.27997,468.124656 1155.36986,407.217635 C1157.49204,365.385706 1129.29235,323.492228 1085.68917,303.699895 C1039.98434,282.953583 976.607602,285.56326 942.890035,319.905396 C908.170462,355.268085 847.155584,368.874536 794.853911,367.056925 Z" id="Path"></path>
        </g>
    </g>
</svg>